<svg width="125" height="47" viewBox="0 0 125 47" fill="none" xmlns="http://www.w3.org/2000/svg">
<path d="M54.0961 23.3417H41.4976V0.0766449H45.9517L54.0961 5.66121V23.3417Z" fill="#2272B4"/>
<path d="M67.5807 6.35954H57.4191V14.361H67.5807V6.35954Z" fill="#2272B4"/>
<path d="M83.4966 23.3414H70.9039V5.5787L79.0425 0H83.4966V23.3414Z" fill="#2272B4"/>
<path d="M29.3247 46.7233V38.5166H23.7921V34.7095H39.5155V38.5166H33.9829V46.7233H29.3247Z" fill="#2272B4"/>
<path d="M54.2534 34.6977C57.3608 34.6977 58.7658 35.5424 58.7658 39.2381C58.7658 42.9337 56.9469 42.9748 56.1598 43.3444L58.7658 46.7174H53.8104L51.56 43.7843H47.4032V46.7174H42.7451V34.7035H54.2534V34.6977ZM47.4032 37.9534V40.2646H53.3498C53.9211 40.2646 54.5683 40.3937 54.5683 39.109C54.5683 38.0824 54.1077 37.9534 53.3498 37.9534H47.4032Z" fill="#2272B4"/>
<path d="M77.8357 40.2592V41.1333C77.8357 46.4128 75.5037 46.9994 69.6913 46.9994C63.8788 46.9994 61.5352 46.4128 61.5352 41.1333V40.2592C61.5352 34.9797 63.8671 34.3931 69.6913 34.3931C75.5154 34.3931 77.8357 34.9797 77.8357 40.2592ZM73.2184 40.5466C73.2184 38.3116 71.9999 38.1826 69.6913 38.1826C67.1494 38.1826 66.1525 38.3175 66.1525 40.5466V40.8458C66.1525 43.0808 67.1494 43.2216 69.6913 43.2216C71.9999 43.2216 73.2184 43.0808 73.2184 40.8458V40.5466Z" fill="#2272B4"/>
<path d="M105.662 34.6918V46.7056H101.004V34.6918H105.662Z" fill="#2272B4"/>
<path d="M125 41.7257C125 46.1429 123.583 46.9994 116.861 46.9994C110.139 46.9994 108.705 46.3776 108.705 41.1333V40.2592C108.705 35.2378 110.618 34.3931 116.861 34.3931C123.852 34.3931 125 35.4255 125 39.6667H120.219C120.219 38.3351 118.849 38.2119 116.861 38.2119C114.051 38.2119 113.369 38.3351 113.369 40.5525V40.8458C113.369 43.0456 114.051 43.1864 116.861 43.1864C118.849 43.1864 120.219 43.0456 120.219 41.7199H125V41.7257Z" fill="#2272B4"/>
<path d="M97.2028 34.6918H92.5389V40.4289H92.02L87.2977 34.6918H80.8906V46.7056H85.5429V39.8951H86.0093L91.9617 46.7056H97.2028V34.6918Z" fill="#2272B4"/>
<path d="M0 34.8156H5.69003L10.2374 40.6817L14.7906 34.8156H20.4748V46.5479H15.9274V40.2887L11.3742 46.5479H9.10055L4.54736 40.2887V46.5479H0V34.8156Z" fill="#2272B4"/>
</svg>
