<svg version="1.1" id="Layer_1" xmlns="http://www.w3.org/2000/svg" xmlns:xlink="http://www.w3.org/1999/xlink" x="0px" y="0px"
	 width="100%" viewBox="0 0 1549 296" enable-background="new 0 0 1549 296" xml:space="preserve">
<path fill="#070A12" opacity="0.000000" stroke="none" 
	d="
M1159.000000,297.000000 
	C772.666687,297.000000 386.833374,297.000000 1.000052,297.000000 
	C1.000035,198.333359 1.000035,99.666725 1.000017,1.000065 
	C517.333313,1.000043 1033.666626,1.000043 1550.000000,1.000022 
	C1550.000000,99.666603 1550.000000,198.333206 1550.000000,296.999908 
	C1419.833374,297.000000 1289.666626,297.000000 1159.000000,297.000000 
M78.659317,219.955566 
	C93.156334,219.968170 107.654121,219.905518 122.149727,220.055038 
	C125.152802,220.086029 126.806351,219.165070 128.400085,216.497803 
	C132.356110,209.877060 136.825745,203.563187 141.173904,196.997971 
	C145.344269,202.470123 149.516281,207.191315 152.811172,212.460938 
	C156.812653,218.860733 162.098602,220.458176 169.378021,220.154694 
	C183.351944,219.572144 197.367706,219.993866 211.366119,219.998840 
	C212.873108,219.999374 214.380096,219.998917 216.696426,219.998917 
	C199.937378,200.503632 184.019287,181.986618 168.160492,163.538559 
	C170.726959,160.205444 173.093414,157.045258 175.549576,153.956375 
	C191.043716,134.471024 206.787720,115.177765 221.928574,95.422066 
	C226.622498,89.297462 231.619781,86.792976 239.333344,87.064163 
	C259.800476,87.783737 280.294800,87.715782 300.777557,88.011047 
	C310.151245,88.146179 318.595367,94.467102 320.885620,103.601677 
	C321.871216,107.532730 321.993408,111.766731 321.941437,115.855904 
	C321.755676,130.468109 312.433136,139.780243 298.082611,139.948547 
	C279.759369,140.163437 261.431732,140.003311 243.105988,140.004791 
	C241.412735,140.004929 239.719467,140.004807 237.087860,140.004807 
	C241.411926,145.685150 244.936295,150.379562 248.527908,155.021927 
	C264.327881,175.444275 280.156982,195.844070 295.946838,216.274246 
	C297.852570,218.740021 299.863983,220.105087 303.355530,220.073959 
	C326.850952,219.864487 350.349976,219.857773 373.845520,220.056091 
	C377.785858,220.089340 379.808289,218.771500 381.373535,215.300583 
	C383.448242,210.699905 386.534943,206.527618 388.357056,201.848160 
	C390.603363,196.079330 394.228394,194.651428 400.229523,194.754593 
	C423.033478,195.146530 445.848206,194.912506 468.355560,194.912506 
	C472.353638,202.271729 476.298706,209.227249 479.916992,216.348831 
	C481.305054,219.080795 482.963623,220.062439 486.037354,220.008804 
	C497.032379,219.816910 508.032806,219.933411 519.031189,219.933289 
	C521.069397,219.933258 523.107605,219.933304 525.851807,219.933304 
	C493.475250,159.663422 461.621643,100.366943 429.531525,40.630245 
	C399.608643,97.383369 369.880493,153.767197 340.069000,210.309113 
	C329.173096,195.594833 318.704132,181.457108 308.196991,167.267807 
	C310.796936,166.802002 313.070831,166.500732 315.292999,165.978928 
	C327.877930,163.023911 338.971985,157.589142 346.943054,146.927551 
	C358.313141,131.719635 360.868439,114.703796 358.088104,96.289627 
	C355.721710,80.616859 348.185791,68.426270 335.129547,59.689171 
	C325.295563,53.108364 313.953644,51.212170 302.485138,51.099064 
	C272.658020,50.804890 242.819992,51.334713 212.999939,50.790203 
	C204.408615,50.633327 198.618454,52.437393 193.332657,59.816872 
	C181.473862,76.372940 168.483002,92.117355 155.980499,108.213539 
	C151.298538,114.241280 146.692734,120.328186 141.789429,126.731255 
	C139.652359,123.777267 137.878342,121.244415 136.022720,118.772820 
	C119.567802,96.855858 103.131264,74.924767 86.545677,53.107029 
	C85.623123,51.893433 83.437622,51.052181 81.830864,51.037560 
	C66.167404,50.895027 50.502007,50.966076 34.837162,50.975296 
	C31.276653,50.977390 27.716141,50.975605 22.946928,50.975605 
	C53.768406,89.713509 83.844055,127.514023 114.066383,165.498886 
	C99.437218,183.232529 84.727936,201.063309 69.165161,219.928696 
	C73.129921,219.928696 75.423065,219.928696 78.659317,219.955566 
M1154.690674,210.159500 
	C1166.995239,205.480240 1177.198364,198.063721 1184.695435,187.122772 
	C1197.615356,168.267975 1201.253784,147.442429 1198.070557,125.086136 
	C1194.901611,102.830528 1183.604370,85.682182 1165.377075,72.991417 
	C1150.392334,62.558350 1133.158813,58.770576 1115.343750,58.141605 
	C1097.216187,57.501595 1079.048462,57.994949 1060.898315,58.012856 
	C1059.631226,58.014107 1058.364502,58.188011 1057.203125,58.273830 
	C1057.203125,111.325035 1057.203125,164.032349 1057.203125,216.999329 
	C1077.243164,216.999329 1097.026855,216.936584 1116.809937,217.021774 
	C1129.619629,217.076920 1142.069824,215.254379 1154.690674,210.159500 
M893.465088,184.955521 
	C888.033447,195.541946 882.601807,206.128372 877.021423,217.004745 
	C889.460693,217.004745 901.287354,216.861923 913.106140,217.103516 
	C916.122253,217.165176 917.608337,216.029648 918.799438,213.611481 
	C921.876282,207.365173 925.032654,201.158066 928.093445,195.062515 
	C950.500366,195.062515 972.478882,195.062515 994.654968,195.062515 
	C997.996338,201.364014 1001.282471,207.739273 1004.776306,213.998611 
	C1005.462952,215.228821 1006.938599,216.853516 1008.072754,216.871399 
	C1020.954834,217.074417 1033.841309,217.000275 1047.175415,217.000275 
	C1018.149414,162.624435 989.442749,108.846809 960.495300,54.618114 
	C938.144958,98.162209 916.029175,141.249435 893.465088,184.955521 
M1303.514526,101.009804 
	C1295.348511,85.617134 1287.182373,70.224472 1278.855225,54.528076 
	C1250.609253,108.999763 1222.739868,162.745056 1194.588379,217.034302 
	C1207.782227,217.034302 1220.232178,217.123322 1232.676636,216.902679 
	C1233.984985,216.879471 1235.740845,215.297134 1236.468506,213.983582 
	C1239.476562,208.552902 1242.304565,203.010025 1244.912720,197.376068 
	C1246.008789,195.008514 1247.154053,193.904175 1249.984497,193.924576 
	C1269.799438,194.067337 1289.616699,193.931107 1309.430542,194.130157 
	C1311.026001,194.146179 1313.205444,195.637070 1314.082153,197.072495 
	C1317.490845,202.653564 1320.425293,208.522125 1323.679932,214.201279 
	C1324.326904,215.330215 1325.595947,216.893921 1326.597534,216.908371 
	C1339.338867,217.092102 1352.083496,217.029388 1365.545288,217.029388 
	C1362.569092,211.513336 1359.934570,206.681961 1357.346558,201.825790 
	C1339.547852,168.428055 1321.758667,135.025162 1303.514526,101.009804 
M835.741333,217.000107 
	C847.796265,217.000107 859.851135,217.000107 872.787720,217.000107 
	C859.805054,198.926682 847.435547,181.706863 834.939331,164.310745 
	C846.032410,161.379639 855.486938,156.948898 862.125671,147.795944 
	C872.520508,133.464447 874.146851,117.332024 870.722290,100.750511 
	C867.796143,86.581955 860.001953,75.052071 847.135437,67.690979 
	C837.545654,62.204540 826.815002,60.215935 816.007385,60.117573 
	C781.348145,59.802113 746.684204,60.000359 712.022095,60.000385 
	C710.438904,60.000389 708.855713,60.000385 706.516541,60.000385 
	C715.253601,71.501389 723.390869,82.376358 731.789978,93.045158 
	C732.753601,94.269112 735.177002,94.860695 736.928223,94.869919 
	C761.923523,95.001633 786.919861,94.926979 811.915039,95.071510 
	C814.965881,95.089142 818.127808,95.735115 821.037659,96.696800 
	C830.909485,99.959343 834.087158,111.115723 832.790161,119.747452 
	C830.893677,132.368881 823.854187,138.885025 813.028625,138.976913 
	C800.864441,139.080170 788.698730,138.989944 776.533752,139.018250 
	C775.357056,139.020981 774.180908,139.265961 772.316895,139.475967 
	C774.080505,141.447479 775.391418,142.701035 776.457520,144.136444 
	C793.754761,167.424194 811.103577,190.674866 828.181274,214.122894 
	C830.138916,216.810867 832.120789,217.155045 835.741333,217.000107 
M1506.499390,216.999817 
	C1512.601440,216.999817 1518.703491,216.999817 1525.966553,216.999817 
	C1519.173584,207.375183 1512.987549,198.568466 1506.756470,189.793793 
	C1500.523071,181.015732 1494.244507,172.269714 1488.492920,164.219528 
	C1495.136475,160.622177 1502.317505,158.254089 1507.502563,153.642120 
	C1523.294922,139.595062 1526.934448,121.307533 1522.260498,101.376984 
	C1515.048340,70.623047 1494.225342,60.956364 1469.266724,60.243530 
	C1435.137817,59.268784 1400.960205,59.997723 1366.803467,60.010418 
	C1365.594360,60.010868 1364.385132,60.161007 1362.651611,60.276237 
	C1370.454224,70.839355 1378.009888,80.751152 1385.148804,90.954475 
	C1386.944580,93.520935 1388.676270,94.272682 1391.577515,94.257744 
	C1409.232544,94.166824 1426.888672,94.163696 1444.543457,94.288231 
	C1452.692627,94.345718 1460.889404,94.290207 1468.971924,95.153175 
	C1475.854736,95.888069 1481.319824,99.549049 1483.530518,106.643623 
	C1486.382446,115.795494 1485.791016,124.632271 1479.321655,132.072678 
	C1473.108154,139.218857 1464.282959,138.464737 1455.895630,138.500809 
	C1446.333984,138.541931 1436.772095,138.510315 1426.753662,138.510315 
	C1427.466797,139.851852 1427.926636,141.049759 1428.659546,142.047195 
	C1446.222412,165.953247 1463.757690,189.880356 1481.518188,213.639038 
	C1482.830444,215.394623 1485.744385,216.673935 1488.016357,216.850159 
	C1493.813110,217.299820 1499.667969,216.999847 1506.499390,216.999817 
M560.998840,105.346649 
	C557.719788,109.166061 557.755554,104.619072 557.065369,103.530914 
	C546.012329,86.103790 535.100525,68.587036 524.229736,51.207615 
	C510.259521,51.207615 496.373962,51.207615 482.177948,51.207615 
	C482.906372,52.307247 483.443298,53.077198 483.939484,53.872551 
	C501.613037,82.201355 519.235657,110.562202 537.015808,138.823868 
	C539.113098,142.157471 540.106140,145.384338 540.076599,149.339325 
	C539.916321,170.827011 540.000427,192.316528 540.000427,213.805405 
	C540.000427,215.565994 540.000427,217.326569 540.000427,219.392258 
	C542.911255,219.626785 545.205200,219.959442 547.500671,219.970551 
	C556.662231,220.014877 565.828979,219.780243 574.983826,220.024246 
	C578.914368,220.129013 580.127258,219.010391 580.092529,214.965027 
	C579.898315,192.311752 579.971313,169.655853 580.049927,147.001175 
	C580.056458,145.113739 580.308411,142.945480 581.243530,141.385574 
	C593.550720,120.854836 606.039734,100.433235 618.398682,79.933342 
	C624.066895,70.531494 629.549866,61.018005 635.442749,51.001217 
	C622.914734,51.001217 611.113159,51.324177 599.343628,50.851025 
	C594.242065,50.645935 591.899475,52.654827 589.530945,56.776997 
	C580.293518,72.853790 570.660095,88.703041 560.998840,105.346649 
M1387.226318,132.499985 
	C1387.226318,160.584488 1387.226318,188.669006 1387.226318,216.739441 
	C1400.269165,216.739441 1412.517944,216.739441 1425.004517,216.739441 
	C1425.004517,197.487198 1425.050537,178.521698 1424.922974,159.557373 
	C1424.912109,157.925507 1424.048096,156.094437 1423.078491,154.706512 
	C1415.462646,143.804977 1407.715454,132.995392 1400.027466,122.144173 
	C1396.048584,116.527809 1392.108154,110.884171 1388.150269,105.252907 
	C1387.854004,105.411392 1387.557617,105.569878 1387.261353,105.728363 
	C1387.261353,114.319061 1387.261353,122.909760 1387.226318,132.499985 
M735.639099,167.098602 
	C735.639099,183.670547 735.639099,200.242493 735.639099,216.768677 
	C747.817871,216.768677 759.871765,216.768677 772.076111,216.768677 
	C772.076111,198.394058 772.124939,180.411057 772.002075,162.429230 
	C771.989502,160.591888 771.358826,158.476410 770.317383,156.973282 
	C762.275940,145.366791 754.057373,133.883026 745.904968,122.353256 
	C742.671143,117.779747 739.466003,113.186012 735.639893,107.735458 
	C735.639893,128.173599 735.639893,147.241348 735.639099,167.098602 
z"/>
<path fill="#FFFFFF" opacity="1.000000" stroke="none" 
	d="
M78.187759,219.942139 
	C75.423065,219.928696 73.129921,219.928696 69.165161,219.928696 
	C84.727936,201.063309 99.437218,183.232529 114.066383,165.498886 
	C83.844055,127.514023 53.768406,89.713509 22.946928,50.975605 
	C27.716141,50.975605 31.276653,50.977390 34.837162,50.975296 
	C50.502007,50.966076 66.167404,50.895027 81.830864,51.037560 
	C83.437622,51.052181 85.623123,51.893433 86.545677,53.107029 
	C103.131264,74.924767 119.567802,96.855858 136.022720,118.772820 
	C137.878342,121.244415 139.652359,123.777267 141.789429,126.731255 
	C146.692734,120.328186 151.298538,114.241280 155.980499,108.213539 
	C168.483002,92.117355 181.473862,76.372940 193.332657,59.816872 
	C198.618454,52.437393 204.408615,50.633327 212.999939,50.790203 
	C242.819992,51.334713 272.658020,50.804890 302.485138,51.099064 
	C313.953644,51.212170 325.295563,53.108364 335.129547,59.689171 
	C348.185791,68.426270 355.721710,80.616859 358.088104,96.289627 
	C360.868439,114.703796 358.313141,131.719635 346.943054,146.927551 
	C338.971985,157.589142 327.877930,163.023911 315.292999,165.978928 
	C313.070831,166.500732 310.796936,166.802002 308.196991,167.267807 
	C318.704132,181.457108 329.173096,195.594833 340.069000,210.309113 
	C369.880493,153.767197 399.608643,97.383369 429.531525,40.630245 
	C461.621643,100.366943 493.475250,159.663422 525.851807,219.933304 
	C523.107605,219.933304 521.069397,219.933258 519.031189,219.933289 
	C508.032806,219.933411 497.032379,219.816910 486.037354,220.008804 
	C482.963623,220.062439 481.305054,219.080795 479.916992,216.348831 
	C476.298706,209.227249 472.353638,202.271729 468.355560,194.912506 
	C445.848206,194.912506 423.033478,195.146530 400.229523,194.754593 
	C394.228394,194.651428 390.603363,196.079330 388.357056,201.848160 
	C386.534943,206.527618 383.448242,210.699905 381.373535,215.300583 
	C379.808289,218.771500 377.785858,220.089340 373.845520,220.056091 
	C350.349976,219.857773 326.850952,219.864487 303.355530,220.073959 
	C299.863983,220.105087 297.852570,218.740021 295.946838,216.274246 
	C280.156982,195.844070 264.327881,175.444275 248.527908,155.021927 
	C244.936295,150.379562 241.411926,145.685150 237.087860,140.004807 
	C239.719467,140.004807 241.412735,140.004929 243.105988,140.004791 
	C261.431732,140.003311 279.759369,140.163437 298.082611,139.948547 
	C312.433136,139.780243 321.755676,130.468109 321.941437,115.855904 
	C321.993408,111.766731 321.871216,107.532730 320.885620,103.601677 
	C318.595367,94.467102 310.151245,88.146179 300.777557,88.011047 
	C280.294800,87.715782 259.800476,87.783737 239.333344,87.064163 
	C231.619781,86.792976 226.622498,89.297462 221.928574,95.422066 
	C206.787720,115.177765 191.043716,134.471024 175.549576,153.956375 
	C173.093414,157.045258 170.726959,160.205444 168.160492,163.538559 
	C184.019287,181.986618 199.937378,200.503632 216.696426,219.998917 
	C214.380096,219.998917 212.873108,219.999374 211.366119,219.998840 
	C197.367706,219.993866 183.351944,219.572144 169.378021,220.154694 
	C162.098602,220.458176 156.812653,218.860733 152.811172,212.460938 
	C149.516281,207.191315 145.344269,202.470123 141.173904,196.997971 
	C136.825745,203.563187 132.356110,209.877060 128.400085,216.497803 
	C126.806351,219.165070 125.152802,220.086029 122.149727,220.055038 
	C107.654121,219.905518 93.156334,219.968170 78.187759,219.942139 
M441.474670,145.013046 
	C437.610382,137.306274 433.746124,129.599518 429.488251,121.107811 
	C422.307373,135.821777 415.552032,149.663818 408.703522,163.696732 
	C422.981079,163.696732 436.497925,163.696732 450.457458,163.696732 
	C447.486969,157.395386 444.712616,151.510162 441.474670,145.013046 
z"/>
<path fill="#FFFFFF" opacity="1.000000" stroke="none" 
	d="
M1154.373047,210.389679 
	C1142.069824,215.254379 1129.619629,217.076920 1116.809937,217.021774 
	C1097.026855,216.936584 1077.243164,216.999329 1057.203125,216.999329 
	C1057.203125,164.032349 1057.203125,111.325035 1057.203125,58.273830 
	C1058.364502,58.188011 1059.631226,58.014107 1060.898315,58.012856 
	C1079.048462,57.994949 1097.216187,57.501595 1115.343750,58.141605 
	C1133.158813,58.770576 1150.392334,62.558350 1165.377075,72.991417 
	C1183.604370,85.682182 1194.901611,102.830528 1198.070557,125.086136 
	C1201.253784,147.442429 1197.615356,168.267975 1184.695435,187.122772 
	C1177.198364,198.063721 1166.995239,205.480240 1154.373047,210.389679 
M1101.551147,186.972046 
	C1108.506714,186.647583 1115.561646,186.951538 1122.397949,185.871811 
	C1138.095825,183.392487 1150.881226,176.172684 1158.032349,161.168839 
	C1162.700684,151.374252 1164.031860,141.044769 1161.888306,130.441788 
	C1159.791626,120.071487 1155.091919,110.872910 1147.085571,103.841454 
	C1131.787720,90.406509 1113.087524,89.995552 1094.231079,90.225403 
	C1094.231079,122.748810 1094.231079,154.798019 1094.231079,186.972382 
	C1096.588989,186.972382 1098.577393,186.972382 1101.551147,186.972046 
z"/>
<path fill="#FFFFFF" opacity="1.000000" stroke="none" 
	d="
M893.689209,184.646088 
	C916.029175,141.249435 938.144958,98.162209 960.495300,54.618114 
	C989.442749,108.846809 1018.149414,162.624435 1047.175415,217.000275 
	C1033.841309,217.000275 1020.954834,217.074417 1008.072754,216.871399 
	C1006.938599,216.853516 1005.462952,215.228821 1004.776306,213.998611 
	C1001.282471,207.739273 997.996338,201.364014 994.654968,195.062515 
	C972.478882,195.062515 950.500366,195.062515 928.093445,195.062515 
	C925.032654,201.158066 921.876282,207.365173 918.799438,213.611481 
	C917.608337,216.029648 916.122253,217.165176 913.106140,217.103516 
	C901.287354,216.861923 889.460693,217.004745 877.021423,217.004745 
	C882.601807,206.128372 888.033447,195.541946 893.689209,184.646088 
M974.134338,166.999817 
	C975.856201,166.999817 977.578064,166.999817 979.706177,166.999817 
	C973.315613,154.448288 967.273560,142.581177 960.898987,130.061050 
	C954.460754,142.888443 948.482666,154.799133 942.358948,166.999878 
	C952.955261,166.999878 963.088257,166.999878 974.134338,166.999817 
z"/>
<path fill="#FFFFFF" opacity="1.000000" stroke="none" 
	d="
M1303.740479,101.316849 
	C1321.758667,135.025162 1339.547852,168.428055 1357.346558,201.825790 
	C1359.934570,206.681961 1362.569092,211.513336 1365.545288,217.029388 
	C1352.083496,217.029388 1339.338867,217.092102 1326.597534,216.908371 
	C1325.595947,216.893921 1324.326904,215.330215 1323.679932,214.201279 
	C1320.425293,208.522125 1317.490845,202.653564 1314.082153,197.072495 
	C1313.205444,195.637070 1311.026001,194.146179 1309.430542,194.130157 
	C1289.616699,193.931107 1269.799438,194.067337 1249.984497,193.924576 
	C1247.154053,193.904175 1246.008789,195.008514 1244.912720,197.376068 
	C1242.304565,203.010025 1239.476562,208.552902 1236.468506,213.983582 
	C1235.740845,215.297134 1233.984985,216.879471 1232.676636,216.902679 
	C1220.232178,217.123322 1207.782227,217.034302 1194.588379,217.034302 
	C1222.739868,162.745056 1250.609253,108.999763 1278.855225,54.528076 
	C1287.182373,70.224472 1295.348511,85.617134 1303.740479,101.316849 
M1268.009766,151.429092 
	C1265.643066,156.212814 1263.276245,160.996552 1260.716797,166.169800 
	C1273.461060,166.169800 1285.462036,166.169800 1297.690308,166.169800 
	C1291.521118,153.720245 1285.598389,141.768280 1279.291382,129.040558 
	C1275.297974,136.898804 1271.784302,143.812729 1268.009766,151.429092 
z"/>
<path fill="#FFFFFF" opacity="1.000000" stroke="none" 
	d="
M835.276428,217.000153 
	C832.120789,217.155045 830.138916,216.810867 828.181274,214.122894 
	C811.103577,190.674866 793.754761,167.424194 776.457520,144.136444 
	C775.391418,142.701035 774.080505,141.447479 772.316895,139.475967 
	C774.180908,139.265961 775.357056,139.020981 776.533752,139.018250 
	C788.698730,138.989944 800.864441,139.080170 813.028625,138.976913 
	C823.854187,138.885025 830.893677,132.368881 832.790161,119.747452 
	C834.087158,111.115723 830.909485,99.959343 821.037659,96.696800 
	C818.127808,95.735115 814.965881,95.089142 811.915039,95.071510 
	C786.919861,94.926979 761.923523,95.001633 736.928223,94.869919 
	C735.177002,94.860695 732.753601,94.269112 731.789978,93.045158 
	C723.390869,82.376358 715.253601,71.501389 706.516541,60.000385 
	C708.855713,60.000385 710.438904,60.000389 712.022095,60.000385 
	C746.684204,60.000359 781.348145,59.802113 816.007385,60.117573 
	C826.815002,60.215935 837.545654,62.204540 847.135437,67.690979 
	C860.001953,75.052071 867.796143,86.581955 870.722290,100.750511 
	C874.146851,117.332024 872.520508,133.464447 862.125671,147.795944 
	C855.486938,156.948898 846.032410,161.379639 834.939331,164.310745 
	C847.435547,181.706863 859.805054,198.926682 872.787720,217.000107 
	C859.851135,217.000107 847.796265,217.000107 835.276428,217.000153 
z"/>
<path fill="#FFFFFF" opacity="1.000000" stroke="none" 
	d="
M1505.999512,216.999786 
	C1499.667969,216.999847 1493.813110,217.299820 1488.016357,216.850159 
	C1485.744385,216.673935 1482.830444,215.394623 1481.518188,213.639038 
	C1463.757690,189.880356 1446.222412,165.953247 1428.659546,142.047195 
	C1427.926636,141.049759 1427.466797,139.851852 1426.753662,138.510315 
	C1436.772095,138.510315 1446.333984,138.541931 1455.895630,138.500809 
	C1464.282959,138.464737 1473.108154,139.218857 1479.321655,132.072678 
	C1485.791016,124.632271 1486.382446,115.795494 1483.530518,106.643623 
	C1481.319824,99.549049 1475.854736,95.888069 1468.971924,95.153175 
	C1460.889404,94.290207 1452.692627,94.345718 1444.543457,94.288231 
	C1426.888672,94.163696 1409.232544,94.166824 1391.577515,94.257744 
	C1388.676270,94.272682 1386.944580,93.520935 1385.148804,90.954475 
	C1378.009888,80.751152 1370.454224,70.839355 1362.651611,60.276237 
	C1364.385132,60.161007 1365.594360,60.010868 1366.803467,60.010418 
	C1400.960205,59.997723 1435.137817,59.268784 1469.266724,60.243530 
	C1494.225342,60.956364 1515.048340,70.623047 1522.260498,101.376984 
	C1526.934448,121.307533 1523.294922,139.595062 1507.502563,153.642120 
	C1502.317505,158.254089 1495.136475,160.622177 1488.492920,164.219528 
	C1494.244507,172.269714 1500.523071,181.015732 1506.756470,189.793793 
	C1512.987549,198.568466 1519.173584,207.375183 1525.966553,216.999817 
	C1518.703491,216.999817 1512.601440,216.999817 1505.999512,216.999786 
z"/>
<path fill="#FFFFFF" opacity="1.000000" stroke="none" 
	d="
M561.086365,104.991776 
	C570.660095,88.703041 580.293518,72.853790 589.530945,56.776997 
	C591.899475,52.654827 594.242065,50.645935 599.343628,50.851025 
	C611.113159,51.324177 622.914734,51.001217 635.442749,51.001217 
	C629.549866,61.018005 624.066895,70.531494 618.398682,79.933342 
	C606.039734,100.433235 593.550720,120.854836 581.243530,141.385574 
	C580.308411,142.945480 580.056458,145.113739 580.049927,147.001175 
	C579.971313,169.655853 579.898315,192.311752 580.092529,214.965027 
	C580.127258,219.010391 578.914368,220.129013 574.983826,220.024246 
	C565.828979,219.780243 556.662231,220.014877 547.500671,219.970551 
	C545.205200,219.959442 542.911255,219.626785 540.000427,219.392258 
	C540.000427,217.326569 540.000427,215.565994 540.000427,213.805405 
	C540.000427,192.316528 539.916321,170.827011 540.076599,149.339325 
	C540.106140,145.384338 539.113098,142.157471 537.015808,138.823868 
	C519.235657,110.562202 501.613037,82.201355 483.939484,53.872551 
	C483.443298,53.077198 482.906372,52.307247 482.177948,51.207615 
	C496.373962,51.207615 510.259521,51.207615 524.229736,51.207615 
	C535.100525,68.587036 546.012329,86.103790 557.065369,103.530914 
	C557.755554,104.619072 557.719788,109.166061 561.086365,104.991776 
z"/>
<path fill="#FFFFFF" opacity="1.000000" stroke="none" 
	d="
M1387.243896,132.000214 
	C1387.261353,122.909760 1387.261353,114.319061 1387.261353,105.728363 
	C1387.557617,105.569878 1387.854004,105.411392 1388.150269,105.252907 
	C1392.108154,110.884171 1396.048584,116.527809 1400.027466,122.144173 
	C1407.715454,132.995392 1415.462646,143.804977 1423.078491,154.706512 
	C1424.048096,156.094437 1424.912109,157.925507 1424.922974,159.557373 
	C1425.050537,178.521698 1425.004517,197.487198 1425.004517,216.739441 
	C1412.517944,216.739441 1400.269165,216.739441 1387.226318,216.739441 
	C1387.226318,188.669006 1387.226318,160.584488 1387.243896,132.000214 
z"/>
<path fill="#FFFFFF" opacity="1.000000" stroke="none" 
	d="
M735.639526,166.703857 
	C735.639893,147.241348 735.639893,128.173599 735.639893,107.735458 
	C739.466003,113.186012 742.671143,117.779747 745.904968,122.353256 
	C754.057373,133.883026 762.275940,145.366791 770.317383,156.973282 
	C771.358826,158.476410 771.989502,160.591888 772.002075,162.429230 
	C772.124939,180.411057 772.076111,198.394058 772.076111,216.768677 
	C759.871765,216.768677 747.817871,216.768677 735.639099,216.768677 
	C735.639099,200.242493 735.639099,183.670547 735.639526,166.703857 
z"/>

</svg>